<?xml version="1.0" encoding="UTF-8" standalone="no"?>
<!-- Created with Inkscape (http://www.inkscape.org/) -->

<svg
   width="200.17343mm"
   height="225.33435mm"
   viewBox="0 0 200.17343 225.33435"
   version="1.1"
   id="svg5"
   xml:space="preserve"
   xmlns="http://www.w3.org/2000/svg"
   xmlns:svg="http://www.w3.org/2000/svg"><defs
     id="defs2"><clipPath
       clipPathUnits="userSpaceOnUse"
       id="clipPath13804"><path
         id="path13806"
         style="fill:#ff0000;fill-opacity:1;fill-rule:nonzero;stroke:none;stroke-width:0.364521"
         d="m 78.456784,154.50252 -15.123109,-0.18436 -0.02718,2.22964 c 0.04268,0.0275 0.08139,0.0546 0.117325,0.0814 0.01332,-1.01101 0.282748,-0.95253 0.661639,-0.49532 0.964181,-0.49788 2.637989,-0.16604 2.64746,0.91438 6.15e-4,0.0853 -0.0092,0.17473 -0.03043,0.26936 -0.01495,0.0668 -0.03041,0.13252 -0.04637,0.19703 -0.003,0.0251 -0.0062,0.054 -0.0087,0.0767 -0.05414,0.49539 -0.147746,0.79019 -0.270021,0.93527 0.05408,0.18273 0.09363,0.38411 0.114839,0.60359 l 11.906362,0.14515 z m -14.371325,1.63136 c -0.0845,0.0436 -0.163228,0.0936 -0.23523,0.15003 0.113286,0.0277 0.263547,0.0734 0.447153,0.12699 -0.07349,-0.10274 -0.144543,-0.19571 -0.211923,-0.27702 z m -0.23523,0.15003 c -0.320136,-0.0782 -0.394132,-0.0173 -0.414241,0.35485 0.02788,0.0212 0.05431,0.0422 0.07811,0.0629 0.07503,-0.1655 0.191512,-0.30441 0.336129,-0.41775 z m -0.418162,1.47214 c -0.0033,-0.0764 -0.0057,-0.15526 -0.0068,-0.23531 -0.04105,0.028 -0.08441,0.056 -0.131615,0.0831 l -0.0021,0.17169 c 0.04538,-0.008 0.09269,-0.014 0.140539,-0.0194 z" /></clipPath><clipPath
       clipPathUnits="userSpaceOnUse"
       id="clipPath13816"><path
         id="path13818"
         style="fill:#ff0000;fill-opacity:1;fill-rule:nonzero;stroke:none;stroke-width:0.364521"
         d="m 74.527077,158.95611 -8.071601,-0.0984 c 0.02611,0.14772 0.04301,0.30528 0.0505,0.47186 0.08279,0.0131 0.165486,0.03 0.247665,0.0501 0.358585,0.0877 0.481713,1.85214 0.503271,2.25963 0.0065,0.12267 0.01,0.24215 0.0099,0.35767 -6.54e-4,0.67823 -0.112198,1.23267 -0.29308,1.66028 l 7.494969,0.0914 z m -7.540571,2.11138 c -6.77e-4,0.001 -0.0014,0.003 -0.002,0.004 l -1.9e-5,0.002 c 0.001,-0.002 0.001,-0.004 0.0021,-0.005 z m -5.025169,-2.26457 -1.447405,-0.0176 c -0.27365,0.23178 -0.199282,0.48608 0.568958,0.79574 0.254852,0.10272 0.434869,0.19161 0.58858,0.2471 0.0026,-0.0268 0.005,-0.0538 0.0074,-0.0807 0.06883,-0.35767 0.158183,-0.67416 0.282418,-0.94453 z m -2.060244,-0.0251 -2.068648,-0.0252 -0.05842,4.79247 1.698879,0.0207 c -0.03182,-0.32733 -0.03452,-0.68934 2.96e-4,-1.08597 0.10372,-1.17996 0.270099,-2.3502 0.402464,-3.52588 0.0081,-0.0589 0.01676,-0.11761 0.02542,-0.17611 z" /></clipPath><clipPath
       clipPathUnits="userSpaceOnUse"
       id="clipPath13826"><path
         id="path13828"
         style="fill:#ff0000;fill-opacity:1;fill-rule:nonzero;stroke:none;stroke-width:0.364521"
         d="m 83.456736,155.81254 -23.265174,-0.28362 -0.02464,2.0211 c 0.299781,-0.93831 0.843023,-1.63081 1.965448,-1.63911 0.342907,-0.003 0.627004,0.33388 0.940441,0.50074 0.142443,0.0758 0.256776,0.14874 0.350991,0.21912 0.01301,-1.01267 0.282568,-0.95434 0.661658,-0.49689 0.964181,-0.49788 2.637989,-0.16604 2.64746,0.91438 6.16e-4,0.0853 -0.0092,0.17473 -0.03043,0.26936 -0.01495,0.0668 -0.03041,0.13252 -0.04637,0.19703 -0.003,0.0251 -0.0062,0.054 -0.0087,0.0767 -0.05414,0.49539 -0.147746,0.79019 -0.270021,0.93527 0.07009,0.23675 0.115028,0.50504 0.128574,0.80292 0.08278,0.0131 0.165485,0.03 0.247664,0.0501 0.358585,0.0877 0.481713,1.85214 0.503271,2.25963 0.0065,0.12267 0.01,0.24215 0.0099,0.35767 -3.7e-5,0.11164 -0.0033,0.21957 -0.0091,0.3245 l 16.11735,0.19648 z m -19.371277,0.32134 c -0.0845,0.0436 -0.163231,0.0936 -0.23523,0.15003 0.113282,0.0277 0.263547,0.0734 0.447153,0.12699 -0.07349,-0.10274 -0.144543,-0.19571 -0.211923,-0.27702 z m -0.23523,0.15003 c -0.320363,-0.0783 -0.394203,-0.0172 -0.41425,0.35564 0.02762,0.021 0.05452,0.0423 0.07811,0.0629 0.07502,-0.16577 0.191342,-0.30505 0.336139,-0.41853 z m 3.136277,4.78358 c -6.77e-4,0.001 -0.0014,0.003 -0.002,0.004 l -1.9e-5,0.002 c 0.001,-0.002 0.001,-0.004 0.0021,-0.005 z m -3.554449,-3.31066 c -0.0033,-0.0767 -0.0057,-0.15577 -0.0068,-0.23609 -1.093152,0.74558 -4.531365,1.17793 -2.342346,2.06028 0.254852,0.10272 0.434869,0.19161 0.58858,0.2471 0.0026,-0.0268 0.005,-0.0538 0.0074,-0.0807 0.219407,-1.14009 0.64742,-1.86466 1.753138,-1.99062 z" /></clipPath><clipPath
       clipPathUnits="userSpaceOnUse"
       id="clipPath13838"><path
         id="path13840"
         style="fill:#ff0000;fill-opacity:1;fill-rule:nonzero;stroke:none;stroke-width:0.397864"
         d="m 66.313069,150.6367 -4.450161,4.36415 c 0.681549,-0.32624 1.334397,-0.25002 1.752705,0.15489 0.359861,0.34834 0.54588,0.9393 0.427557,1.72513 0.069,0.0982 0.135983,0.19646 0.202271,0.29355 0.02109,0.0309 -0.344702,1.45591 -0.382825,1.60673 -0.100534,0.41313 -0.216729,0.82208 -0.349179,1.22726 0.04993,0.035 0.09294,0.0644 0.144511,0.10071 0.08096,0.057 -0.446289,1.3875 -0.477718,1.47049 -0.382713,0.99541 -0.693364,2.00378 -1.133978,2.98376 -0.392063,0.7168 -0.692167,1.46368 -1.078911,2.18128 l 5.020707,5.11966 10.777475,-10.56916 z m -2.45879,7.13142 c -0.0014,3.8e-4 -0.0034,0.004 -0.0069,0.0109 -0.03224,0.0661 -0.0601,0.13352 -0.08771,0.20116 0.0077,-0.007 0.01545,-0.0149 0.02323,-0.0217 0.04303,-0.0381 0.08129,-0.19131 0.07143,-0.19025 z m -3.517006,-1.27113 -4.801679,4.70887 1.551203,1.58178 c 0.03725,-0.0765 0.07777,-0.15146 0.121956,-0.22364 0.164163,-0.26814 0.369096,-0.51353 0.553554,-0.77012 0.141867,0.0313 0.286471,0.0577 0.432417,0.081 0.07434,-0.36168 0.163586,-0.70322 0.202927,-0.85859 0.326018,-1.19623 0.871687,-2.3439 1.403988,-3.48693 0.08413,-0.17213 0.168342,-0.34415 0.252472,-0.51628 0.09032,-0.18479 0.185195,-0.35599 0.283162,-0.51607 z" /></clipPath><clipPath
       clipPathUnits="userSpaceOnUse"
       id="clipPath13848"><path
         id="path13850"
         style="fill:#ff0000;fill-opacity:1;fill-rule:nonzero;stroke:none;stroke-width:0.397864"
         d="m 72.00969,144.21788 -15.033347,14.74277 1.559283,1.59001 c 0.329877,-1.02993 0.803103,-2.0273 1.266013,-3.02132 0.08413,-0.17213 0.168342,-0.34415 0.252472,-0.51628 0.127033,-0.2599 0.262464,-0.4946 0.40394,-0.70623 0.326044,-0.57439 0.769726,-1.15493 1.251752,-1.22652 0.735837,-0.41575 1.456269,-0.35971 1.905823,0.0754 0.359861,0.34834 0.54588,0.9393 0.427557,1.72513 0.069,0.0982 0.135983,0.19646 0.202271,0.29356 0.02109,0.0309 -0.344702,1.4559 -0.382825,1.60672 -0.100534,0.41313 -0.21673,0.82208 -0.349179,1.22727 0.04993,0.035 0.09294,0.0644 0.144511,0.1007 0.08096,0.057 -0.446289,1.38751 -0.477718,1.47049 -0.343759,0.89411 -0.629522,1.79896 -1.003409,2.684 l 9.380439,9.56533 15.033348,-14.74278 z m -8.155411,13.55024 c -0.0014,3.8e-4 -0.0034,0.004 -0.0069,0.0109 -0.03224,0.0661 -0.0601,0.13352 -0.08771,0.20116 0.0077,-0.007 0.01545,-0.0149 0.02323,-0.0217 0.04303,-0.0381 0.08129,-0.19131 0.07143,-0.19025 z" /></clipPath><clipPath
       clipPathUnits="userSpaceOnUse"
       id="clipPath13858"><path
         id="path13860"
         style="fill:#ff0000;fill-opacity:1;fill-rule:nonzero;stroke:none;stroke-width:0.397864"
         d="m 71.013251,146.96878 -8.015553,7.86062 c 0.235778,0.0506 0.446643,0.16056 0.617915,0.32634 0.359861,0.34834 0.54588,0.9393 0.427557,1.72513 0.069,0.0982 0.135983,0.19646 0.202271,0.29355 0.02109,0.0309 -0.344702,1.45591 -0.382825,1.60673 -0.05463,0.22449 -0.11425,0.44763 -0.178224,0.66972 l 7.035455,7.17412 9.9758,-9.78298 z m -7.158972,10.79934 c -0.0014,3.8e-4 -0.0034,0.004 -0.0069,0.0109 -0.03224,0.0661 -0.0601,0.13352 -0.08771,0.20116 0.0077,-0.007 0.01545,-0.0149 0.02323,-0.0217 0.04303,-0.0381 0.08129,-0.19131 0.07143,-0.19025 z" /></clipPath></defs><g
     id="layer1"
     style="display:inline;fill:#e4661a;fill-opacity:1"
     transform="translate(-3.2166739,-19.499906)"><text
       xml:space="preserve"
       style="font-style:normal;font-variant:normal;font-weight:normal;font-stretch:normal;font-size:52.0976px;font-family:Rockwell;-inkscape-font-specification:'Rockwell, Normal';font-variant-ligatures:normal;font-variant-caps:normal;font-variant-numeric:normal;font-variant-east-asian:normal;text-align:center;text-anchor:middle;fill:#0c0805;fill-opacity:1;fill-rule:nonzero;stroke:none;stroke-width:109.544;stroke-opacity:0.0935551"
       x="151.21434"
       y="168.33681"
       id="text16702"
       transform="scale(0.69046335,1.4483028)"><tspan
         style="font-style:normal;font-variant:normal;font-weight:normal;font-stretch:normal;font-size:52.0976px;font-family:Rockwell;-inkscape-font-specification:'Rockwell, Normal';font-variant-ligatures:normal;font-variant-caps:normal;font-variant-numeric:normal;font-variant-east-asian:normal;fill:#0c0805;fill-opacity:1;stroke-width:109.544"
         x="151.21434"
         y="168.33681"
         id="tspan29013">IntelliSumm</tspan></text><g
       id="g27068"
       transform="matrix(2.4005567,0,0,2.2083359,15.581401,-111.24107)"><g
         id="g11730"
         transform="matrix(0.67865139,0,0,0.53090902,15.605366,16.415374)"
         style="fill:#000000;fill-opacity:1"><circle
           style="opacity:1;fill:#000000;fill-opacity:1;fill-rule:nonzero;stroke:#505050;stroke-width:5.9;stroke-opacity:0.0935551"
           id="circle11622"
           cx="77.546913"
           cy="156.40375"
           r="1.0479313" /><rect
           style="opacity:1;fill:#000000;fill-opacity:1;fill-rule:nonzero;stroke:#505050;stroke-width:4.11551;stroke-opacity:0.0935551"
           id="rect11694"
           width="12.525784"
           height="0.47457457"
           x="59.887768"
           y="161.01312" /><rect
           style="opacity:1;fill:#000000;fill-opacity:1;fill-rule:nonzero;stroke:#505050;stroke-width:5.75681;stroke-opacity:0.0935551"
           id="rect11696"
           width="17.434055"
           height="0.66715544"
           x="63.066257"
           y="158.68997" /><rect
           style="opacity:1;fill:#000000;fill-opacity:1;fill-rule:nonzero;stroke:#505050;stroke-width:4.05377;stroke-opacity:0.0935551"
           id="rect11698"
           width="10.753649"
           height="0.53631926"
           x="-59.933144"
           y="163.76753"
           transform="rotate(-46.417923)" /><rect
           style="opacity:1;fill:#000000;fill-opacity:1;fill-rule:nonzero;stroke:#505050;stroke-width:4.06353;stroke-opacity:0.0935551"
           id="rect11700"
           width="11.005868"
           height="0.52655584"
           x="65.363426"
           y="156.53343" /><circle
           style="opacity:1;fill:#000000;fill-opacity:1;fill-rule:nonzero;stroke:#505050;stroke-width:5.9;stroke-opacity:0.0935551"
           id="circle11702"
           cx="81.214668"
           cy="159.02356"
           r="1.0479313" /><circle
           style="opacity:1;fill:#000000;fill-opacity:1;fill-rule:nonzero;stroke:#505050;stroke-width:5.9;stroke-opacity:0.0935551"
           id="circle11704"
           cx="84.882423"
           cy="148.80623"
           r="1.0479313" /><circle
           style="opacity:1;fill:#000000;fill-opacity:1;fill-rule:nonzero;stroke:#505050;stroke-width:5.9;stroke-opacity:0.0935551"
           id="circle11706"
           cx="79.118797"
           cy="166.35909"
           r="1.0479313" /><circle
           style="opacity:1;fill:#000000;fill-opacity:1;fill-rule:nonzero;stroke:#505050;stroke-width:5.9;stroke-opacity:0.0935551"
           id="circle11708"
           cx="73.093201"
           cy="161.38141"
           r="1.0479313" /><rect
           style="opacity:1;fill:#000000;fill-opacity:1;fill-rule:nonzero;stroke:#505050;stroke-width:2.82699;stroke-opacity:0.0935551"
           id="rect11712"
           width="7.4279065"
           height="0.3776097"
           x="174.65964"
           y="61.007969"
           transform="matrix(0.7010003,0.71316097,-0.79747597,0.6033507,0,0)" /><rect
           style="opacity:1;fill:#000000;fill-opacity:1;fill-rule:nonzero;stroke:#505050;stroke-width:2.57884;stroke-opacity:0.0935551"
           id="rect11714"
           width="6.8399444"
           height="0.34123486"
           x="11.272251"
           y="178.10712"
           transform="matrix(0.92010841,-0.39166377,0.39735759,0.91766385,0,0)" /><circle
           style="opacity:1;fill:#000000;fill-opacity:1;fill-rule:nonzero;stroke:#505050;stroke-width:5.9;stroke-opacity:0.0935551"
           id="circle11716"
           cx="88.2882"
           cy="156.40373"
           r="1.0479313" /></g><g
         id="g11782"
         transform="matrix(-0.00803434,-0.79926618,0.65905728,-0.00974359,-67.39017,134.48874)"
         style="fill:#000000;fill-opacity:1"><circle
           style="opacity:1;fill:#000000;fill-opacity:1;fill-rule:nonzero;stroke:#505050;stroke-width:5.9;stroke-opacity:0.0935551"
           id="circle11758"
           cx="77.546913"
           cy="156.40375"
           r="1.0479313" /><rect
           style="opacity:1;fill:#000000;fill-opacity:1;fill-rule:nonzero;stroke:#505050;stroke-width:4.11551;stroke-opacity:0.0935551"
           id="rect11760"
           width="12.525784"
           height="0.47457457"
           x="59.887768"
           y="161.01312"
           clip-path="url(#clipPath13816)" /><rect
           style="opacity:1;fill:#000000;fill-opacity:1;fill-rule:nonzero;stroke:#505050;stroke-width:5.75681;stroke-opacity:0.0935551"
           id="rect11762"
           width="17.434055"
           height="0.66715544"
           x="63.066257"
           y="158.68997"
           clip-path="url(#clipPath13826)" /><rect
           style="opacity:1;fill:#000000;fill-opacity:1;fill-rule:nonzero;stroke:#505050;stroke-width:4.05377;stroke-opacity:0.0935551"
           id="rect11764"
           width="10.753649"
           height="0.53631926"
           x="-59.933144"
           y="163.76753"
           transform="rotate(-46.417923)" /><rect
           style="opacity:1;fill:#000000;fill-opacity:1;fill-rule:nonzero;stroke:#505050;stroke-width:4.06353;stroke-opacity:0.0935551"
           id="rect11766"
           width="11.005868"
           height="0.52655584"
           x="65.363426"
           y="156.53343"
           clip-path="url(#clipPath13804)" /><circle
           style="opacity:1;fill:#000000;fill-opacity:1;fill-rule:nonzero;stroke:#505050;stroke-width:5.9;stroke-opacity:0.0935551"
           id="circle11768"
           cx="81.214668"
           cy="159.02356"
           r="1.0479313" /><circle
           style="opacity:1;fill:#000000;fill-opacity:1;fill-rule:nonzero;stroke:#505050;stroke-width:5.9;stroke-opacity:0.0935551"
           id="circle11770"
           cx="84.882423"
           cy="148.80623"
           r="1.0479313" /><circle
           style="opacity:1;fill:#000000;fill-opacity:1;fill-rule:nonzero;stroke:#505050;stroke-width:5.9;stroke-opacity:0.0935551"
           id="circle11772"
           cx="79.118797"
           cy="166.35909"
           r="1.0479313" /><circle
           style="opacity:1;fill:#000000;fill-opacity:1;fill-rule:nonzero;stroke:#505050;stroke-width:5.9;stroke-opacity:0.0935551"
           id="circle11774"
           cx="73.093201"
           cy="161.38141"
           r="1.0479313" /><rect
           style="opacity:1;fill:#000000;fill-opacity:1;fill-rule:nonzero;stroke:#505050;stroke-width:2.82699;stroke-opacity:0.0935551"
           id="rect11776"
           width="7.4279065"
           height="0.3776097"
           x="174.65964"
           y="61.007969"
           transform="matrix(0.7010003,0.71316097,-0.79747597,0.6033507,0,0)" /><rect
           style="opacity:1;fill:#000000;fill-opacity:1;fill-rule:nonzero;stroke:#505050;stroke-width:2.57884;stroke-opacity:0.0935551"
           id="rect11778"
           width="6.8399444"
           height="0.34123486"
           x="11.272251"
           y="178.10712"
           transform="matrix(0.92010841,-0.39166377,0.39735759,0.91766385,0,0)" /><circle
           style="opacity:1;fill:#000000;fill-opacity:1;fill-rule:nonzero;stroke:#505050;stroke-width:5.9;stroke-opacity:0.0935551"
           id="circle11780"
           cx="88.2882"
           cy="156.40373"
           r="1.0479313" /></g><g
         id="g11834"
         transform="matrix(0.50171344,-0.44064303,0.51160207,0.43212595,-64.23961,40.957282)"
         style="fill:#000000;fill-opacity:1"><circle
           style="opacity:1;fill:#000000;fill-opacity:1;fill-rule:nonzero;stroke:#505050;stroke-width:5.9;stroke-opacity:0.0935551"
           id="circle11810"
           cx="77.546913"
           cy="156.40375"
           r="1.0479313" /><rect
           style="opacity:1;fill:#000000;fill-opacity:1;fill-rule:nonzero;stroke:#505050;stroke-width:4.11551;stroke-opacity:0.0935551"
           id="rect11812"
           width="12.525784"
           height="0.47457457"
           x="59.887768"
           y="161.01312"
           clip-path="url(#clipPath13838)" /><rect
           style="opacity:1;fill:#000000;fill-opacity:1;fill-rule:nonzero;stroke:#505050;stroke-width:5.75681;stroke-opacity:0.0935551"
           id="rect11814"
           width="17.434055"
           height="0.66715544"
           x="63.066257"
           y="158.68997"
           clip-path="url(#clipPath13848)" /><rect
           style="opacity:1;fill:#000000;fill-opacity:1;fill-rule:nonzero;stroke:#505050;stroke-width:4.05377;stroke-opacity:0.0935551"
           id="rect11816"
           width="10.753649"
           height="0.53631926"
           x="-59.933144"
           y="163.76753"
           transform="rotate(-46.417923)" /><rect
           style="opacity:1;fill:#000000;fill-opacity:1;fill-rule:nonzero;stroke:#505050;stroke-width:4.06353;stroke-opacity:0.0935551"
           id="rect11818"
           width="11.005868"
           height="0.52655584"
           x="65.363426"
           y="156.53343"
           clip-path="url(#clipPath13858)" /><circle
           style="opacity:1;fill:#000000;fill-opacity:1;fill-rule:nonzero;stroke:#505050;stroke-width:5.9;stroke-opacity:0.0935551"
           id="circle11820"
           cx="81.214668"
           cy="159.02356"
           r="1.0479313" /><circle
           style="opacity:1;fill:#000000;fill-opacity:1;fill-rule:nonzero;stroke:#505050;stroke-width:5.9;stroke-opacity:0.0935551"
           id="circle11822"
           cx="84.882423"
           cy="148.80623"
           r="1.0479313" /><circle
           style="opacity:1;fill:#000000;fill-opacity:1;fill-rule:nonzero;stroke:#505050;stroke-width:5.9;stroke-opacity:0.0935551"
           id="circle11824"
           cx="79.118797"
           cy="166.35909"
           r="1.0479313" /><circle
           style="opacity:1;fill:#000000;fill-opacity:1;fill-rule:nonzero;stroke:#505050;stroke-width:5.9;stroke-opacity:0.0935551"
           id="circle11826"
           cx="73.093201"
           cy="161.38141"
           r="1.0479313" /><rect
           style="opacity:1;fill:#000000;fill-opacity:1;fill-rule:nonzero;stroke:#505050;stroke-width:2.82699;stroke-opacity:0.0935551"
           id="rect11828"
           width="7.4279065"
           height="0.3776097"
           x="174.65964"
           y="61.007969"
           transform="matrix(0.7010003,0.71316097,-0.79747597,0.6033507,0,0)" /><rect
           style="opacity:1;fill:#000000;fill-opacity:1;fill-rule:nonzero;stroke:#505050;stroke-width:2.57884;stroke-opacity:0.0935551"
           id="rect11830"
           width="6.8399444"
           height="0.34123486"
           x="11.272251"
           y="178.10712"
           transform="matrix(0.92010841,-0.39166377,0.39735759,0.91766385,0,0)" /><circle
           style="opacity:1;fill:#000000;fill-opacity:1;fill-rule:nonzero;stroke:#505050;stroke-width:5.9;stroke-opacity:0.0935551"
           id="circle11832"
           cx="88.2882"
           cy="156.40373"
           r="1.0479313" /></g><g
         id="g15338"
         transform="matrix(-0.44052676,-0.50181553,0.43224449,-0.51150192,-14.62058,193.76363)"
         style="fill:#000000;fill-opacity:1"><circle
           style="opacity:1;fill:#000000;fill-opacity:1;fill-rule:nonzero;stroke:#505050;stroke-width:5.9;stroke-opacity:0.0935551"
           id="circle15314"
           cx="77.546913"
           cy="156.40375"
           r="1.0479313" /><rect
           style="opacity:1;fill:#000000;fill-opacity:1;fill-rule:nonzero;stroke:#505050;stroke-width:4.11551;stroke-opacity:0.0935551"
           id="rect15316"
           width="12.525784"
           height="0.47457457"
           x="59.887768"
           y="161.01312"
           clip-path="url(#clipPath13838)" /><rect
           style="opacity:1;fill:#000000;fill-opacity:1;fill-rule:nonzero;stroke:#505050;stroke-width:5.75681;stroke-opacity:0.0935551"
           id="rect15318"
           width="17.434055"
           height="0.66715544"
           x="63.066257"
           y="158.68997"
           clip-path="url(#clipPath13848)" /><rect
           style="opacity:1;fill:#000000;fill-opacity:1;fill-rule:nonzero;stroke:#505050;stroke-width:4.05377;stroke-opacity:0.0935551"
           id="rect15320"
           width="10.753649"
           height="0.53631926"
           x="-59.933144"
           y="163.76753"
           transform="rotate(-46.417923)" /><rect
           style="opacity:1;fill:#000000;fill-opacity:1;fill-rule:nonzero;stroke:#505050;stroke-width:4.06353;stroke-opacity:0.0935551"
           id="rect15322"
           width="11.005868"
           height="0.52655584"
           x="65.363426"
           y="156.53343"
           clip-path="url(#clipPath13858)" /><circle
           style="opacity:1;fill:#000000;fill-opacity:1;fill-rule:nonzero;stroke:#505050;stroke-width:5.9;stroke-opacity:0.0935551"
           id="circle15324"
           cx="81.214668"
           cy="159.02356"
           r="1.0479313" /><circle
           style="opacity:1;fill:#000000;fill-opacity:1;fill-rule:nonzero;stroke:#505050;stroke-width:5.9;stroke-opacity:0.0935551"
           id="circle15326"
           cx="84.882423"
           cy="148.80623"
           r="1.0479313" /><circle
           style="opacity:1;fill:#000000;fill-opacity:1;fill-rule:nonzero;stroke:#505050;stroke-width:5.9;stroke-opacity:0.0935551"
           id="circle15328"
           cx="79.118797"
           cy="166.35909"
           r="1.0479313" /><circle
           style="opacity:1;fill:#000000;fill-opacity:1;fill-rule:nonzero;stroke:#505050;stroke-width:5.9;stroke-opacity:0.0935551"
           id="circle15330"
           cx="73.093201"
           cy="161.38141"
           r="1.0479313" /><rect
           style="opacity:1;fill:#000000;fill-opacity:1;fill-rule:nonzero;stroke:#505050;stroke-width:2.82699;stroke-opacity:0.0935551"
           id="rect15332"
           width="7.4279065"
           height="0.3776097"
           x="174.65964"
           y="61.007969"
           transform="matrix(0.7010003,0.71316097,-0.79747597,0.6033507,0,0)" /><rect
           style="opacity:1;fill:#000000;fill-opacity:1;fill-rule:nonzero;stroke:#505050;stroke-width:2.57884;stroke-opacity:0.0935551"
           id="rect15334"
           width="6.8399444"
           height="0.34123486"
           x="11.272251"
           y="178.10712"
           transform="matrix(0.92010841,-0.39166377,0.39735759,0.91766385,0,0)" /><circle
           style="opacity:1;fill:#000000;fill-opacity:1;fill-rule:nonzero;stroke:#505050;stroke-width:5.9;stroke-opacity:0.0935551"
           id="circle15336"
           cx="88.2882"
           cy="156.40373"
           r="1.0479313" /></g><g
         id="g15364"
         transform="matrix(0.02600252,0.7988835,-0.65867161,0.02455896,141.78648,61.524919)"
         style="fill:#000000;fill-opacity:1"><circle
           style="opacity:1;fill:#000000;fill-opacity:1;fill-rule:nonzero;stroke:#505050;stroke-width:5.9;stroke-opacity:0.0935551"
           id="circle15340"
           cx="77.546913"
           cy="156.40375"
           r="1.0479313" /><rect
           style="opacity:1;fill:#000000;fill-opacity:1;fill-rule:nonzero;stroke:#505050;stroke-width:4.11551;stroke-opacity:0.0935551"
           id="rect15342"
           width="12.525784"
           height="0.47457457"
           x="59.887768"
           y="161.01312"
           clip-path="url(#clipPath13816)" /><rect
           style="opacity:1;fill:#000000;fill-opacity:1;fill-rule:nonzero;stroke:#505050;stroke-width:5.75681;stroke-opacity:0.0935551"
           id="rect15344"
           width="17.434055"
           height="0.66715544"
           x="63.066257"
           y="158.68997"
           clip-path="url(#clipPath13826)" /><rect
           style="opacity:1;fill:#000000;fill-opacity:1;fill-rule:nonzero;stroke:#505050;stroke-width:4.05377;stroke-opacity:0.0935551"
           id="rect15346"
           width="10.753649"
           height="0.53631926"
           x="-59.933144"
           y="163.76753"
           transform="rotate(-46.417923)" /><rect
           style="opacity:1;fill:#000000;fill-opacity:1;fill-rule:nonzero;stroke:#505050;stroke-width:4.06353;stroke-opacity:0.0935551"
           id="rect15348"
           width="11.005868"
           height="0.52655584"
           x="65.363426"
           y="156.53343"
           clip-path="url(#clipPath13804)" /><circle
           style="opacity:1;fill:#000000;fill-opacity:1;fill-rule:nonzero;stroke:#505050;stroke-width:5.9;stroke-opacity:0.0935551"
           id="circle15350"
           cx="81.214668"
           cy="159.02356"
           r="1.0479313" /><circle
           style="opacity:1;fill:#000000;fill-opacity:1;fill-rule:nonzero;stroke:#505050;stroke-width:5.9;stroke-opacity:0.0935551"
           id="circle15352"
           cx="84.882423"
           cy="148.80623"
           r="1.0479313" /><circle
           style="opacity:1;fill:#000000;fill-opacity:1;fill-rule:nonzero;stroke:#505050;stroke-width:5.9;stroke-opacity:0.0935551"
           id="circle15354"
           cx="79.118797"
           cy="166.35909"
           r="1.0479313" /><circle
           style="opacity:1;fill:#000000;fill-opacity:1;fill-rule:nonzero;stroke:#505050;stroke-width:5.9;stroke-opacity:0.0935551"
           id="circle15356"
           cx="73.093201"
           cy="161.38141"
           r="1.0479313" /><rect
           style="opacity:1;fill:#000000;fill-opacity:1;fill-rule:nonzero;stroke:#505050;stroke-width:2.82699;stroke-opacity:0.0935551"
           id="rect15358"
           width="7.4279065"
           height="0.3776097"
           x="174.65964"
           y="61.007969"
           transform="matrix(0.7010003,0.71316097,-0.79747597,0.6033507,0,0)" /><rect
           style="opacity:1;fill:#000000;fill-opacity:1;fill-rule:nonzero;stroke:#505050;stroke-width:2.57884;stroke-opacity:0.0935551"
           id="rect15360"
           width="6.8399444"
           height="0.34123486"
           x="11.272251"
           y="178.10712"
           transform="matrix(0.92010841,-0.39166377,0.39735759,0.91766385,0,0)" /><circle
           style="opacity:1;fill:#000000;fill-opacity:1;fill-rule:nonzero;stroke:#505050;stroke-width:5.9;stroke-opacity:0.0935551"
           id="circle15362"
           cx="88.2882"
           cy="156.40373"
           r="1.0479313" /></g><g
         id="g15390"
         transform="matrix(0.52418133,0.41366241,-0.33237984,0.58137179,67.806769,-1.2381648)"
         style="fill:#000000;fill-opacity:1"><circle
           style="opacity:1;fill:#000000;fill-opacity:1;fill-rule:nonzero;stroke:#505050;stroke-width:5.9;stroke-opacity:0.0935551"
           id="circle15366"
           cx="77.546913"
           cy="156.40375"
           r="1.0479313" /><rect
           style="opacity:1;fill:#000000;fill-opacity:1;fill-rule:nonzero;stroke:#505050;stroke-width:4.11551;stroke-opacity:0.0935551"
           id="rect15368"
           width="12.525784"
           height="0.47457457"
           x="59.887768"
           y="161.01312"
           clip-path="url(#clipPath13838)" /><rect
           style="opacity:1;fill:#000000;fill-opacity:1;fill-rule:nonzero;stroke:#505050;stroke-width:5.75681;stroke-opacity:0.0935551"
           id="rect15370"
           width="17.434055"
           height="0.66715544"
           x="63.066257"
           y="158.68997"
           clip-path="url(#clipPath13848)" /><rect
           style="opacity:1;fill:#000000;fill-opacity:1;fill-rule:nonzero;stroke:#505050;stroke-width:4.05377;stroke-opacity:0.0935551"
           id="rect15372"
           width="10.753649"
           height="0.53631926"
           x="-59.933144"
           y="163.76753"
           transform="rotate(-46.417923)" /><rect
           style="opacity:1;fill:#000000;fill-opacity:1;fill-rule:nonzero;stroke:#505050;stroke-width:4.06353;stroke-opacity:0.0935551"
           id="rect15374"
           width="11.005868"
           height="0.52655584"
           x="65.363426"
           y="156.53343"
           clip-path="url(#clipPath13858)" /><circle
           style="opacity:1;fill:#000000;fill-opacity:1;fill-rule:nonzero;stroke:#505050;stroke-width:5.9;stroke-opacity:0.0935551"
           id="circle15376"
           cx="81.214668"
           cy="159.02356"
           r="1.0479313" /><circle
           style="opacity:1;fill:#000000;fill-opacity:1;fill-rule:nonzero;stroke:#505050;stroke-width:5.9;stroke-opacity:0.0935551"
           id="circle15378"
           cx="84.882423"
           cy="148.80623"
           r="1.0479313" /><circle
           style="opacity:1;fill:#000000;fill-opacity:1;fill-rule:nonzero;stroke:#505050;stroke-width:5.9;stroke-opacity:0.0935551"
           id="circle15380"
           cx="79.118797"
           cy="166.35909"
           r="1.0479313" /><circle
           style="opacity:1;fill:#000000;fill-opacity:1;fill-rule:nonzero;stroke:#505050;stroke-width:5.9;stroke-opacity:0.0935551"
           id="circle15382"
           cx="73.093201"
           cy="161.38141"
           r="1.0479313" /><rect
           style="opacity:1;fill:#000000;fill-opacity:1;fill-rule:nonzero;stroke:#505050;stroke-width:2.82699;stroke-opacity:0.0935551"
           id="rect15384"
           width="7.4279065"
           height="0.3776097"
           x="174.65964"
           y="61.007969"
           transform="matrix(0.7010003,0.71316097,-0.79747597,0.6033507,0,0)" /><rect
           style="opacity:1;fill:#000000;fill-opacity:1;fill-rule:nonzero;stroke:#505050;stroke-width:2.57884;stroke-opacity:0.0935551"
           id="rect15386"
           width="6.8399444"
           height="0.34123486"
           x="11.272251"
           y="178.10712"
           transform="matrix(0.92010841,-0.39166377,0.39735759,0.91766385,0,0)" /><circle
           style="opacity:1;fill:#000000;fill-opacity:1;fill-rule:nonzero;stroke:#505050;stroke-width:5.9;stroke-opacity:0.0935551"
           id="circle15388"
           cx="88.2882"
           cy="156.40373"
           r="1.0479313" /></g><g
         id="g15416"
         transform="matrix(-0.51824864,0.42107126,-0.49464767,-0.4514346,136.89346,162.93914)"
         style="fill:#000000;fill-opacity:1"><circle
           style="opacity:1;fill:#000000;fill-opacity:1;fill-rule:nonzero;stroke:#505050;stroke-width:5.9;stroke-opacity:0.0935551"
           id="circle15392"
           cx="77.546913"
           cy="156.40375"
           r="1.0479313" /><rect
           style="opacity:1;fill:#000000;fill-opacity:1;fill-rule:nonzero;stroke:#505050;stroke-width:4.11551;stroke-opacity:0.0935551"
           id="rect15394"
           width="12.525784"
           height="0.47457457"
           x="59.887768"
           y="161.01312"
           clip-path="url(#clipPath13838)" /><rect
           style="opacity:1;fill:#000000;fill-opacity:1;fill-rule:nonzero;stroke:#505050;stroke-width:5.75681;stroke-opacity:0.0935551"
           id="rect15396"
           width="17.434055"
           height="0.66715544"
           x="63.066257"
           y="158.68997"
           clip-path="url(#clipPath13848)" /><rect
           style="opacity:1;fill:#000000;fill-opacity:1;fill-rule:nonzero;stroke:#505050;stroke-width:4.05377;stroke-opacity:0.0935551"
           id="rect15398"
           width="10.753649"
           height="0.53631926"
           x="-59.933144"
           y="163.76753"
           transform="rotate(-46.417923)" /><rect
           style="opacity:1;fill:#000000;fill-opacity:1;fill-rule:nonzero;stroke:#505050;stroke-width:4.06353;stroke-opacity:0.0935551"
           id="rect15400"
           width="11.005868"
           height="0.52655584"
           x="65.363426"
           y="156.53343"
           clip-path="url(#clipPath13858)" /><circle
           style="opacity:1;fill:#000000;fill-opacity:1;fill-rule:nonzero;stroke:#505050;stroke-width:5.9;stroke-opacity:0.0935551"
           id="circle15402"
           cx="81.214668"
           cy="159.02356"
           r="1.0479313" /><circle
           style="opacity:1;fill:#000000;fill-opacity:1;fill-rule:nonzero;stroke:#505050;stroke-width:5.9;stroke-opacity:0.0935551"
           id="circle15404"
           cx="84.882423"
           cy="148.80623"
           r="1.0479313" /><circle
           style="opacity:1;fill:#000000;fill-opacity:1;fill-rule:nonzero;stroke:#505050;stroke-width:5.9;stroke-opacity:0.0935551"
           id="circle15406"
           cx="79.118797"
           cy="166.35909"
           r="1.0479313" /><circle
           style="opacity:1;fill:#000000;fill-opacity:1;fill-rule:nonzero;stroke:#505050;stroke-width:5.9;stroke-opacity:0.0935551"
           id="circle15408"
           cx="73.093201"
           cy="161.38141"
           r="1.0479313" /><rect
           style="opacity:1;fill:#000000;fill-opacity:1;fill-rule:nonzero;stroke:#505050;stroke-width:2.82699;stroke-opacity:0.0935551"
           id="rect15410"
           width="7.4279065"
           height="0.3776097"
           x="174.65964"
           y="61.007969"
           transform="matrix(0.7010003,0.71316097,-0.79747597,0.6033507,0,0)" /><rect
           style="opacity:1;fill:#000000;fill-opacity:1;fill-rule:nonzero;stroke:#505050;stroke-width:2.57884;stroke-opacity:0.0935551"
           id="rect15412"
           width="6.8399444"
           height="0.34123486"
           x="11.272251"
           y="178.10712"
           transform="matrix(0.92010841,-0.39166377,0.39735759,0.91766385,0,0)" /><circle
           style="opacity:1;fill:#000000;fill-opacity:1;fill-rule:nonzero;stroke:#505050;stroke-width:5.9;stroke-opacity:0.0935551"
           id="circle15414"
           cx="88.2882"
           cy="156.40373"
           r="1.0479313" /></g><g
         id="g15442"
         transform="matrix(-0.6785698,-0.01052318,0.00823229,-0.53084519,56.18444,185.56721)"
         style="fill:#000000;fill-opacity:1"><circle
           style="opacity:1;fill:#000000;fill-opacity:1;fill-rule:nonzero;stroke:#505050;stroke-width:5.9;stroke-opacity:0.0935551"
           id="circle15418"
           cx="77.546913"
           cy="156.40375"
           r="1.0479313" /><rect
           style="opacity:1;fill:#000000;fill-opacity:1;fill-rule:nonzero;stroke:#505050;stroke-width:4.11551;stroke-opacity:0.0935551"
           id="rect15420"
           width="12.525784"
           height="0.47457457"
           x="59.887768"
           y="161.01312" /><rect
           style="opacity:1;fill:#000000;fill-opacity:1;fill-rule:nonzero;stroke:#505050;stroke-width:5.75681;stroke-opacity:0.0935551"
           id="rect15422"
           width="17.434055"
           height="0.66715544"
           x="63.066257"
           y="158.68997" /><rect
           style="opacity:1;fill:#000000;fill-opacity:1;fill-rule:nonzero;stroke:#505050;stroke-width:4.05377;stroke-opacity:0.0935551"
           id="rect15424"
           width="10.753649"
           height="0.53631926"
           x="-59.933144"
           y="163.76753"
           transform="rotate(-46.417923)" /><rect
           style="opacity:1;fill:#000000;fill-opacity:1;fill-rule:nonzero;stroke:#505050;stroke-width:4.06353;stroke-opacity:0.0935551"
           id="rect15426"
           width="11.005868"
           height="0.52655584"
           x="65.363426"
           y="156.53343" /><circle
           style="opacity:1;fill:#000000;fill-opacity:1;fill-rule:nonzero;stroke:#505050;stroke-width:5.9;stroke-opacity:0.0935551"
           id="circle15428"
           cx="81.214668"
           cy="159.02356"
           r="1.0479313" /><circle
           style="opacity:1;fill:#000000;fill-opacity:1;fill-rule:nonzero;stroke:#505050;stroke-width:5.9;stroke-opacity:0.0935551"
           id="circle15430"
           cx="84.882423"
           cy="148.80623"
           r="1.0479313" /><circle
           style="opacity:1;fill:#000000;fill-opacity:1;fill-rule:nonzero;stroke:#505050;stroke-width:5.9;stroke-opacity:0.0935551"
           id="circle15432"
           cx="79.118797"
           cy="166.35909"
           r="1.0479313" /><circle
           style="opacity:1;fill:#000000;fill-opacity:1;fill-rule:nonzero;stroke:#505050;stroke-width:5.9;stroke-opacity:0.0935551"
           id="circle15434"
           cx="73.093201"
           cy="161.38141"
           r="1.0479313" /><rect
           style="opacity:1;fill:#000000;fill-opacity:1;fill-rule:nonzero;stroke:#505050;stroke-width:2.82699;stroke-opacity:0.0935551"
           id="rect15436"
           width="7.4279065"
           height="0.3776097"
           x="174.65964"
           y="61.007969"
           transform="matrix(0.7010003,0.71316097,-0.79747597,0.6033507,0,0)" /><rect
           style="opacity:1;fill:#000000;fill-opacity:1;fill-rule:nonzero;stroke:#505050;stroke-width:2.57884;stroke-opacity:0.0935551"
           id="rect15438"
           width="6.8399444"
           height="0.34123486"
           x="11.272251"
           y="178.10712"
           transform="matrix(0.92010841,-0.39166377,0.39735759,0.91766385,0,0)" /><circle
           style="opacity:1;fill:#000000;fill-opacity:1;fill-rule:nonzero;stroke:#505050;stroke-width:5.9;stroke-opacity:0.0935551"
           id="circle15440"
           cx="88.2882"
           cy="156.40373"
           r="1.0479313" /></g><path
         style="opacity:0.99;fill:none;fill-opacity:1;fill-rule:nonzero;stroke:#0b0b0b;stroke-width:2.57565;stroke-dasharray:none;stroke-opacity:1"
         id="path24776"
         d="M 47.418892,64.971741 28.266606,75.089984 9.9278077,63.562739 10.741295,41.917252 29.893581,31.799009 48.232379,43.326253 Z"
         transform="matrix(0.01564045,1.0163573,-0.9895559,0.01876505,89.764048,68.863828)" /></g></g></svg>
